<?xml version="1.0" standalone="no"?>
<!DOCTYPE svg PUBLIC "-//W3C//DTD SVG 20010904//EN"
 "http://www.w3.org/TR/2001/REC-SVG-20010904/DTD/svg10.dtd">
<svg version="1.0" xmlns="http://www.w3.org/2000/svg"
 width="1280.000000pt" height="959.000000pt" viewBox="0 0 1280.000000 959.000000"
 preserveAspectRatio="xMidYMid meet">
<metadata>
Created by potrace 1.15, written by Peter Selinger 2001-2017
</metadata>
<g transform="translate(0.000000,959.000000) scale(0.100000,-0.100000)"
fill="#000000" stroke="none">
<path d="M8165 9584 c-215 -33 -387 -105 -422 -178 -30 -64 2 -115 106 -170
187 -98 320 -106 496 -30 45 18 92 34 105 34 14 0 63 -11 110 -23 287 -80 500
-234 713 -517 148 -196 326 -331 494 -375 110 -29 237 -13 285 35 44 45 39 87
-24 193 -301 500 -857 888 -1443 1008 -97 19 -351 33 -420 23z"/>
<path d="M4560 9265 c-527 -57 -1007 -272 -1325 -590 -66 -66 -146 -143 -177
-172 -56 -50 -58 -54 -58 -102 0 -55 50 -177 97 -239 35 -47 103 -76 159 -68
45 6 259 88 359 139 72 36 194 117 347 230 161 120 242 171 381 237 342 165
702 224 1002 165 137 -27 269 -44 349 -47 91 -2 118 13 155 85 61 123 -38 210
-319 282 -356 90 -653 115 -970 80z"/>
<path d="M4205 7613 c-581 -49 -1048 -258 -1430 -639 -357 -357 -616 -855
-776 -1491 l-43 -173 -31 -5 c-25 -4 -1050 -67 -1739 -107 l-189 -12 7 -165
c48 -1157 281 -2014 728 -2683 447 -670 1162 -1093 2048 -1212 355 -48 881
-50 1175 -5 632 95 1111 331 1525 748 346 350 610 803 800 1374 27 83 47 127
56 127 8 0 155 -18 326 -40 172 -22 316 -40 320 -40 4 0 31 -35 59 -77 148
-219 337 -449 520 -632 511 -509 1211 -837 1979 -927 174 -21 564 -23 745 -5
405 40 868 142 1171 257 268 102 529 282 705 487 356 417 547 978 621 1827 17
192 16 918 -1 1160 -17 245 -49 581 -56 588 -3 3 -424 -20 -937 -52 -805 -50
-932 -56 -939 -43 -5 8 -39 56 -76 108 -377 528 -828 890 -1318 1057 -440 151
-949 161 -1336 26 -530 -184 -863 -630 -979 -1308 -11 -66 -23 -122 -25 -125
-5 -4 -970 -69 -1056 -70 l-26 -1 -7 158 c-9 198 -21 325 -47 477 -129 773
-538 1253 -1181 1384 -169 35 -417 49 -593 34z m6372 -1681 c25 -35 43 -66 39
-69 -9 -9 -17 1 -86 107 -63 99 -35 77 47 -38z"/>
<path d="M9423 1276 c-547 -383 -900 -575 -1355 -740 -258 -93 -587 -173 -878
-212 -166 -22 -623 -30 -801 -15 -615 54 -1192 227 -1839 551 -131 65 -211
100 -232 100 -81 0 -148 -68 -148 -150 0 -81 24 -104 205 -197 1184 -608 2337
-763 3450 -463 573 154 1162 443 1709 838 65 48 127 100 137 117 29 47 26 126
-7 165 -35 41 -74 60 -123 60 -32 0 -55 -11 -118 -54z"/>
</g>
</svg>
