<?xml version="1.0" standalone="no"?>
<!DOCTYPE svg PUBLIC "-//W3C//DTD SVG 20010904//EN"
 "http://www.w3.org/TR/2001/REC-SVG-20010904/DTD/svg10.dtd">
<svg version="1.0" xmlns="http://www.w3.org/2000/svg"
 width="1116.000000pt" height="1280.000000pt" viewBox="0 0 1116.000000 1280.000000"
 preserveAspectRatio="xMidYMid meet">
<metadata>
Created by potrace 1.15, written by Peter Selinger 2001-2017
</metadata>
<g transform="translate(0.000000,1280.000000) scale(0.100000,-0.100000)"
fill="#000000" stroke="none">
<path d="M3755 12789 c-38 -5 -126 -23 -195 -40 -502 -125 -1092 -465 -1670
-964 -156 -134 -180 -160 -180 -194 0 -43 49 -81 105 -81 39 0 56 9 162 88
763 568 1482 866 1959 813 134 -15 186 -31 319 -99 161 -82 240 -82 328 -3 77
70 97 160 52 237 -51 88 -243 185 -450 229 -94 20 -329 28 -430 14z"/>
<path d="M7555 12645 c-33 -33 -34 -98 -2 -146 33 -50 87 -75 232 -109 409
-97 891 -376 1225 -710 243 -242 392 -473 502 -780 53 -149 86 -204 138 -231
95 -51 253 12 280 111 19 69 -15 156 -150 384 -189 320 -575 703 -975 970
-306 203 -652 371 -1007 490 -159 53 -207 57 -243 21z"/>
<path d="M2532 10839 c-247 -17 -558 -77 -773 -150 -609 -205 -1073 -580
-1378 -1112 -371 -646 -470 -1503 -295 -2542 79 -466 224 -1019 404 -1535 39
-113 79 -226 87 -251 l16 -47 111 -11 c671 -71 1413 -299 2103 -645 l133 -66
68 92 c891 1206 1459 2452 1616 3543 67 460 73 983 15 1283 -152 789 -859
1375 -1739 1442 -149 11 -189 11 -368 -1z"/>
<path d="M7090 6260 c-256 -16 -440 -33 -440 -41 0 -16 76 -29 220 -39 891
-62 1713 -210 2390 -432 348 -114 647 -265 1025 -518 192 -129 301 -217 459
-370 158 -152 199 -177 282 -167 84 9 143 97 131 197 -18 149 -197 364 -485
582 -311 235 -692 401 -1282 559 -419 111 -835 181 -1315 220 -171 13 -814 20
-985 9z"/>
<path d="M594 3524 c5 -10 25 -68 46 -129 100 -290 226 -591 360 -864 466
-946 1076 -1621 1862 -2060 436 -244 853 -380 1373 -448 186 -24 657 -24 850
0 981 124 1770 413 2545 930 323 216 599 444 924 766 163 161 456 479 456 494
0 3 -66 -12 -147 -34 -632 -167 -1373 -299 -1993 -354 -603 -53 -1239 -53
-1800 1 -1589 150 -3054 703 -4404 1661 -52 36 -77 49 -72 37z"/>
</g>
</svg>
